<mxfile host="Electron" modified="2024-05-23T15:55:37.997Z" agent="Mozilla/5.0 (Windows NT 10.0; Win64; x64) AppleWebKit/537.36 (KHTML, like Gecko) draw.io/23.1.5 Chrome/120.0.6099.109 Electron/28.1.0 Safari/537.36" etag="W-GT6hLFWQ9CGoAenOvC" version="23.1.5" type="device">
  <diagram name="Sayfa -1" id="R3SGsRxHrKrUWQl2yb--">
    <mxGraphModel dx="1278" dy="606" grid="1" gridSize="10" guides="1" tooltips="1" connect="1" arrows="1" fold="1" page="1" pageScale="1" pageWidth="827" pageHeight="1169" math="0" shadow="0">
      <root>
        <mxCell id="0" />
        <mxCell id="1" parent="0" />
        <mxCell id="VHsAXBjR1nK4-GiMEqLW-1" value="" style="edgeStyle=orthogonalEdgeStyle;rounded=0;orthogonalLoop=1;jettySize=auto;html=1;" edge="1" parent="1" source="VHsAXBjR1nK4-GiMEqLW-2" target="VHsAXBjR1nK4-GiMEqLW-4">
          <mxGeometry relative="1" as="geometry" />
        </mxCell>
        <mxCell id="VHsAXBjR1nK4-GiMEqLW-2" value="BAŞLA" style="ellipse;whiteSpace=wrap;html=1;" vertex="1" parent="1">
          <mxGeometry x="300" y="97" width="120" height="80" as="geometry" />
        </mxCell>
        <mxCell id="VHsAXBjR1nK4-GiMEqLW-3" value="" style="edgeStyle=orthogonalEdgeStyle;rounded=0;orthogonalLoop=1;jettySize=auto;html=1;" edge="1" parent="1" source="VHsAXBjR1nK4-GiMEqLW-4" target="VHsAXBjR1nK4-GiMEqLW-7">
          <mxGeometry relative="1" as="geometry" />
        </mxCell>
        <mxCell id="VHsAXBjR1nK4-GiMEqLW-4" value="X=0&lt;br&gt;Y=1" style="rounded=0;whiteSpace=wrap;html=1;" vertex="1" parent="1">
          <mxGeometry x="300" y="207" width="120" height="60" as="geometry" />
        </mxCell>
        <mxCell id="VHsAXBjR1nK4-GiMEqLW-5" value="FİBONACCİ DİZİSİ&lt;div&gt;&lt;br/&gt;&lt;/div&gt;" style="text;html=1;align=center;verticalAlign=middle;resizable=0;points=[];autosize=1;strokeColor=none;fillColor=none;" vertex="1" parent="1">
          <mxGeometry x="165" y="50" width="130" height="40" as="geometry" />
        </mxCell>
        <mxCell id="VHsAXBjR1nK4-GiMEqLW-6" value="" style="edgeStyle=orthogonalEdgeStyle;rounded=0;orthogonalLoop=1;jettySize=auto;html=1;exitX=0.49;exitY=0.84;exitDx=0;exitDy=0;exitPerimeter=0;" edge="1" parent="1" source="VHsAXBjR1nK4-GiMEqLW-7" target="VHsAXBjR1nK4-GiMEqLW-11">
          <mxGeometry relative="1" as="geometry">
            <Array as="points">
              <mxPoint x="359" y="397" />
              <mxPoint x="360" y="397" />
            </Array>
          </mxGeometry>
        </mxCell>
        <mxCell id="VHsAXBjR1nK4-GiMEqLW-7" value="X,Y" style="shape=document;whiteSpace=wrap;html=1;boundedLbl=1;" vertex="1" parent="1">
          <mxGeometry x="300" y="297" width="120" height="80" as="geometry" />
        </mxCell>
        <mxCell id="VHsAXBjR1nK4-GiMEqLW-8" value="ATAMA" style="text;html=1;align=center;verticalAlign=middle;resizable=0;points=[];autosize=1;strokeColor=none;fillColor=none;" vertex="1" parent="1">
          <mxGeometry x="180" y="225" width="60" height="30" as="geometry" />
        </mxCell>
        <mxCell id="VHsAXBjR1nK4-GiMEqLW-9" value="EKRANA YAZDIRMA" style="text;html=1;align=center;verticalAlign=middle;resizable=0;points=[];autosize=1;strokeColor=none;fillColor=none;" vertex="1" parent="1">
          <mxGeometry x="140" y="315" width="140" height="30" as="geometry" />
        </mxCell>
        <mxCell id="VHsAXBjR1nK4-GiMEqLW-10" value="" style="edgeStyle=orthogonalEdgeStyle;rounded=0;orthogonalLoop=1;jettySize=auto;html=1;" edge="1" parent="1" source="VHsAXBjR1nK4-GiMEqLW-11" target="VHsAXBjR1nK4-GiMEqLW-14">
          <mxGeometry relative="1" as="geometry">
            <Array as="points">
              <mxPoint x="350" y="527" />
              <mxPoint x="350" y="527" />
            </Array>
          </mxGeometry>
        </mxCell>
        <mxCell id="VHsAXBjR1nK4-GiMEqLW-11" value="N" style="shape=parallelogram;perimeter=parallelogramPerimeter;whiteSpace=wrap;html=1;fixedSize=1;" vertex="1" parent="1">
          <mxGeometry x="290" y="397" width="120" height="60" as="geometry" />
        </mxCell>
        <mxCell id="VHsAXBjR1nK4-GiMEqLW-12" value="KULLANICIDAN VERİ ALMA" style="text;html=1;align=center;verticalAlign=middle;resizable=0;points=[];autosize=1;strokeColor=none;fillColor=none;" vertex="1" parent="1">
          <mxGeometry x="110" y="435" width="180" height="30" as="geometry" />
        </mxCell>
        <mxCell id="VHsAXBjR1nK4-GiMEqLW-13" value="" style="edgeStyle=orthogonalEdgeStyle;rounded=0;orthogonalLoop=1;jettySize=auto;html=1;" edge="1" parent="1" source="VHsAXBjR1nK4-GiMEqLW-14" target="VHsAXBjR1nK4-GiMEqLW-17">
          <mxGeometry relative="1" as="geometry" />
        </mxCell>
        <mxCell id="VHsAXBjR1nK4-GiMEqLW-14" value="İ=1,İ&amp;lt;=(N-2),1" style="shape=hexagon;perimeter=hexagonPerimeter2;whiteSpace=wrap;html=1;fixedSize=1;" vertex="1" parent="1">
          <mxGeometry x="290" y="517" width="120" height="80" as="geometry" />
        </mxCell>
        <mxCell id="VHsAXBjR1nK4-GiMEqLW-15" value="DÖNGÜ" style="text;html=1;align=center;verticalAlign=middle;resizable=0;points=[];autosize=1;strokeColor=none;fillColor=none;" vertex="1" parent="1">
          <mxGeometry x="210" y="552" width="70" height="30" as="geometry" />
        </mxCell>
        <mxCell id="VHsAXBjR1nK4-GiMEqLW-16" value="" style="edgeStyle=orthogonalEdgeStyle;rounded=0;orthogonalLoop=1;jettySize=auto;html=1;" edge="1" parent="1" source="VHsAXBjR1nK4-GiMEqLW-17" target="VHsAXBjR1nK4-GiMEqLW-18">
          <mxGeometry relative="1" as="geometry" />
        </mxCell>
        <mxCell id="VHsAXBjR1nK4-GiMEqLW-17" value="Z=X+Y" style="rounded=0;whiteSpace=wrap;html=1;" vertex="1" parent="1">
          <mxGeometry x="452.5" y="527" width="120" height="60" as="geometry" />
        </mxCell>
        <mxCell id="VHsAXBjR1nK4-GiMEqLW-18" value="Z" style="shape=document;whiteSpace=wrap;html=1;boundedLbl=1;" vertex="1" parent="1">
          <mxGeometry x="452.5" y="637" width="120" height="80" as="geometry" />
        </mxCell>
        <mxCell id="VHsAXBjR1nK4-GiMEqLW-19" value="X=Y&lt;br&gt;Y=Z" style="rounded=0;whiteSpace=wrap;html=1;" vertex="1" parent="1">
          <mxGeometry x="452.5" y="767" width="120" height="60.5" as="geometry" />
        </mxCell>
        <mxCell id="VHsAXBjR1nK4-GiMEqLW-20" style="edgeStyle=orthogonalEdgeStyle;rounded=0;orthogonalLoop=1;jettySize=auto;html=1;entryX=0.28;entryY=1.03;entryDx=0;entryDy=0;entryPerimeter=0;" edge="1" parent="1" source="VHsAXBjR1nK4-GiMEqLW-19" target="VHsAXBjR1nK4-GiMEqLW-14">
          <mxGeometry relative="1" as="geometry" />
        </mxCell>
        <mxCell id="VHsAXBjR1nK4-GiMEqLW-21" value="SON" style="ellipse;whiteSpace=wrap;html=1;" vertex="1" parent="1">
          <mxGeometry x="280" y="867" width="120" height="80" as="geometry" />
        </mxCell>
        <mxCell id="VHsAXBjR1nK4-GiMEqLW-22" style="edgeStyle=orthogonalEdgeStyle;rounded=0;orthogonalLoop=1;jettySize=auto;html=1;entryX=0.583;entryY=0.025;entryDx=0;entryDy=0;entryPerimeter=0;" edge="1" parent="1" source="VHsAXBjR1nK4-GiMEqLW-14" target="VHsAXBjR1nK4-GiMEqLW-21">
          <mxGeometry relative="1" as="geometry" />
        </mxCell>
        <mxCell id="VHsAXBjR1nK4-GiMEqLW-23" value="" style="endArrow=classic;html=1;rounded=0;exitX=0.533;exitY=0.83;exitDx=0;exitDy=0;exitPerimeter=0;entryX=0.5;entryY=0;entryDx=0;entryDy=0;" edge="1" parent="1" source="VHsAXBjR1nK4-GiMEqLW-18" target="VHsAXBjR1nK4-GiMEqLW-19">
          <mxGeometry width="50" height="50" relative="1" as="geometry">
            <mxPoint x="490" y="767" as="sourcePoint" />
            <mxPoint x="540" y="717" as="targetPoint" />
          </mxGeometry>
        </mxCell>
      </root>
    </mxGraphModel>
  </diagram>
</mxfile>
